# xmcd
#
# Track frame offsets:
#	150
#	43177
#	54609
#	64451
#	73658
#	83762
#
# Disc length: 1273 seconds
#
# Revision: 0
# Processed by: cddbd v1.5.1PL0 Copyright (c) Steve Scherf et al.
# Submitted via: dBpowerAMP V4.0
#
DISCID=5604f706
DTITLE=Rock and Roll Varios - Louie Y Frank
DYEAR=2003
DGENRE=Rock and Roll
TTITLE0=DATA
TTITLE1=Rock and roll music - Chuck Berry
TTITLE2=Rock around the clock - Bill Halley
TTITLE3=Roll over Beethoven - Chuck Berry
TTITLE4=Blue suede shoes - Carl Perkins
TTITLE5=Johnny B. Goode - Chuck Berry
EXTD=Es el disko de budweiser ke regalan por ahi
EXTT0=
EXTT1=
EXTT2=
EXTT3=
EXTT4=
EXTT5=
PLAYORDER=
